<svg width="80" height="80" viewBox="0 0 80 80" xmlns="http://www.w3.org/2000/svg">
  <rect width="80" height="80" rx="8" fill="#4A154B"/>
  <g transform="translate(16,16)">
    <!-- Slack logo simplified -->
    <path d="M10.2 30.4c0 2.7-2.2 4.8-4.8 4.8S0.6 33.1 0.6 30.4c0-2.7 2.2-4.8 4.8-4.8h4.8v4.8z" fill="#E01E5A"/>
    <path d="M12.6 30.4c0-2.7 2.2-4.8 4.8-4.8s4.8 2.2 4.8 4.8v12c0 2.7-2.2 4.8-4.8 4.8s-4.8-2.2-4.8-4.8v-12z" fill="#E01E5A"/>
    <path d="M17.4 10.2c-2.7 0-4.8-2.2-4.8-4.8S14.7 0.6 17.4 0.6s4.8 2.2 4.8 4.8v4.8h-4.8z" fill="#36C5F0"/>
    <path d="M17.4 12.6c2.7 0 4.8 2.2 4.8 4.8s-2.2 4.8-4.8 4.8H5.4c-2.7 0-4.8-2.2-4.8-4.8s2.2-4.8 4.8-4.8h12z" fill="#36C5F0"/>
    <path d="M37.6 17.4c0-2.7 2.2-4.8 4.8-4.8s4.8 2.2 4.8 4.8-2.2 4.8-4.8 4.8h-4.8v-4.8z" fill="#2EB67D"/>
    <path d="M35.2 17.4c0 2.7-2.2 4.8-4.8 4.8s-4.8-2.2-4.8-4.8V5.4c0-2.7 2.2-4.8 4.8-4.8s4.8 2.2 4.8 4.8v12z" fill="#2EB67D"/>
    <path d="M30.4 37.6c2.7 0 4.8 2.2 4.8 4.8s-2.2 4.8-4.8 4.8-4.8-2.2-4.8-4.8v-4.8h4.8z" fill="#ECB22E"/>
    <path d="M30.4 35.2c-2.7 0-4.8-2.2-4.8-4.8s2.2-4.8 4.8-4.8h12c2.7 0 4.8 2.2 4.8 4.8s-2.2 4.8-4.8 4.8h-12z" fill="#ECB22E"/>
  </g>
</svg>
